{"title":"The Vikings  (NLSUBS) 2Lions-Team","uid":5525302,"size":3914076566,"categoryP":"video","categoryS":"movies_dvdr","magnet":"?xt=urn:btih:9b94e78ffb93de140140f3f42ba54f98aeafb8ba&amp;dn=The+Vikings++%28NLSUBS%29+2Lions-Team&amp;tr=udp%3A%2F%2Ftracker.openbittorrent.com%3A80&amp;tr=udp%3A%2F%2Fopen.demonii.com%3A1337&amp;tr=udp%3A%2F%2Ftracker.coppersurfer.tk%3A6969&amp;tr=udp%3A%2F%2Fexodus.desync.com%3A6969","seeders":0,"leechers":1,"uploader":"Pioen","files":-1,"time":1272754220,"description":"The Vikings       \n \n \n  Verenigde Staten\nActie / Avontuur\n114 minuten\n\ngeregisseerd door Richard Fleischer\nmet Kirk Douglas, Ernest Borgnine en Tony Curtis\n\nRagnar (Ernest Borgnine) leidt met grote regelmaat bloeddorstige Vikingen naar de Engelse kust. Hij verwekt een kind bij de koningin. Eric (Tony Curtis) is de zoon die hieruit voortkomt, hij komt oog in oog te staan met Einar (Kirk Douglas) de opvolger van Ragnar.\n\n\nEnglish\n\nEinar and Eric are two Viking half-brothers. The former is a great warrior whilst the other is an ex-slave, but neither knows the true identity of the other. When the throne of Northumbria in Britain becomes free for the taking, the two brothers compete against one another for the prize, but they have very different motives - both involving the princess Morgana, however.\n\nCategorie : Beeld \nFormaat : DVD5 \nBron : Retail\n \nOndertitels : Nederlands (instelbaar)\n \nGenre : Actie\nAvontuur\nFormat                           : MPEG-PS\nFile size                        : 1 024 MiB\nDuration                         : 30mn 53s\nOverall bit rate                 : 4 635 Kbps\n\nVideo\nID                               : 224 (0xE0)\nFormat                           : MPEG Video\nFormat version                   : Version 2\nFormat profile                   : Main@Main\nFormat settings, Matrix          : Default\nDuration                         : 30mn 53s\nBit rate mode                    : Variable\nBit rate                         : 4 259 Kbps\nNominal bit rate                 : 8 500 Kbps\nWidth                            : 720 pixels\nHeight                           : 576 pixels\nDisplay aspect ratio             : 2.35\nFrame rate                       : 25.000 fps\nStandard                         : PAL\nColorimetry                      : 4:2:0\nScan type                        : Interlaced\nScan order                       : Top Field First\nBits/(Pixel*Frame)               : 0.411\nStream size                      : 941 MiB (92%)\n\nAudio\nID                               : 130 (0x82)\nFormat                           : AC-3\nFormat/Info                      : Audio Coding 3\nDuration                         : 30mn 52s\nBit rate mode                    : Constant\nBit rate                         : 192 Kbps\nChannel(s)                       : 2 channels\nChannel positions                : L R\nSampling rate                    : 48.0 KHz\nStream size                      : 42.4 MiB (4%)\n\nMenu\nFormat                           : DVD-Video\n \nWeblink : &lt;a href=&quot; http://www.moviemeter.nl/film/8253&quot; rel=&quot;nofollow&quot; target=&quot;_NEW&quot;&gt; http://www.moviemeter.nl/film/8253&lt;/a&gt; \nWeblink : &lt;a href=&quot; http://www.imdb.com/title/tt0052365&quot; rel=&quot;nofollow&quot; target=&quot;_NEW&quot;&gt; http://www.imdb.com/title/tt0052365&lt;/a&gt;\n\n*****************************************\n\nBrought to you by \n2Lions Team\n\nmeer zien??\nKom dan eens kijken op ons forum \n\n\n2Lions the site to be for all your Dutch MOVIES and more\n\n******************************************\n\n\nDON T HIT AND RUN Niet gelijk afhaken als de FILM binnen is blijf seeden. \n\nDon`t quit after you finished the download, but keep seeding\n\n\nThere are fake torrents from uploaders who use our team name.\nThose are not ours, or members from our team.\nWe 2Lions-Team are not responsible for the fake posts on our name\n\nWij 2Lions-Team zijn niet verantwoordelijk voor die zieke FAKE posten die op onze naam worden gedaan\n\nPlease check our site !!!\nTo the fakers Get a Live\n","torrent":{"xt":"urn:btih:9b94e78ffb93de140140f3f42ba54f98aeafb8ba","amp;dn":"The+Vikings++%28NLSUBS%29+2Lions-Team","amp;tr":["udp%3A%2F%2Ftracker.openbittorrent.com%3A80","udp%3A%2F%2Fopen.demonii.com%3A1337","udp%3A%2F%2Ftracker.coppersurfer.tk%3A6969","udp%3A%2F%2Fexodus.desync.com%3A6969"],"infoHash":"9b94e78ffb93de140140f3f42ba54f98aeafb8ba","infoHashBuffer":{"type":"Buffer","data":[155,148,231,143,251,147,222,20,1,64,243,244,43,165,79,152,174,175,184,186]},"announce":[],"urlList":[]}}